<?xml version="1.0" encoding="UTF-8" standalone="no"?>
<svg
   enable-background="new 0 0 512 512"
   height="512px"
   id="Layer_1"
   version="1.1"
   viewBox="0 0 512 512"
   width="512px"
   xml:space="preserve"
   sodipodi:docname="gmail-icon.svg"
   inkscape:version="1.1.2 (0a00cf5339, 2022-02-04)"
   xmlns:inkscape="http://www.inkscape.org/namespaces/inkscape"
   xmlns:sodipodi="http://sodipodi.sourceforge.net/DTD/sodipodi-0.dtd"
   xmlns="http://www.w3.org/2000/svg"
   xmlns:svg="http://www.w3.org/2000/svg"><defs
     id="defs13" /><sodipodi:namedview
     id="namedview11"
     pagecolor="#ffffff"
     bordercolor="#666666"
     borderopacity="1.0"
     inkscape:pageshadow="2"
     inkscape:pageopacity="0.0"
     inkscape:pagecheckerboard="0"
     showgrid="false"
     inkscape:zoom="1.6386719"
     inkscape:cx="256"
     inkscape:cy="225.79261"
     inkscape:window-width="1920"
     inkscape:window-height="1011"
     inkscape:window-x="929"
     inkscape:window-y="1080"
     inkscape:window-maximized="1"
     inkscape:current-layer="Layer_1" /><g
     id="g4"><circle
       cx="255.99899"
       cy="256"
       id="circle2"
       r="246.455"
       style="opacity:1;fill:#0d0d0d;fill-opacity:1" /></g><g
     id="Page-1"
     style="fill:#f2f2f2;fill-opacity:1"><g
       id="Icons-Communication"
       transform="translate(0.000000, -85.000000)"
       style="fill:#f2f2f2;fill-opacity:1"><g
         id="gmail"
         transform="translate(0.000000, 85.000000)"
         style="fill:#f2f2f2;fill-opacity:1"><path
           d="M384,128H128c-17.602,0-32,14.406-32,32v192c0,17.594,14.398,32,32,32h256     c17.594,0,32-14.406,32-32V160C416,142.406,401.594,128,384,128L384,128z M384,352h-32V211.203L256,272l-96-60.797V352h-32V160     h19.203L256,227.203L364.797,160H384V352L384,352z"
           fill="#FFFFFF"
           id="Shape"
           style="fill:#f2f2f2;fill-opacity:1" /></g></g></g></svg>
