<svg width="480" height="480" viewBox="0 0 127 127" xmlns="http://www.w3.org/2000/svg"><defs><path id="a" d="M36 16h92v84H36z"/><path id="g" d="M36 16h92v84H36z"/><path id="h" d="M36 16h92v84H36z"/><path id="f" d="M36 16h92v84H36z"/><path id="e" d="M36 16h92v84H36z"/><path id="i" d="M36 16h92v84H36z"/><path id="d" d="M36 16h92v84H36z"/><path id="b" d="M36 16h92v84H36z"/><path id="c" d="M36 16h92v84H36z"/></defs><path style="fill:#0df259;fill-opacity:1;stroke:none;stroke-width:.264583;stroke-linejoin:miter;stroke-miterlimit:4;stroke-dasharray:none;stroke-opacity:1" d="M55.033 55.033h16.933v16.933H55.033z"/><path style="fill:#f55656;fill-opacity:1;stroke:none;stroke-width:.264583;stroke-linejoin:miter;stroke-miterlimit:4;stroke-dasharray:none;stroke-opacity:1" d="M105.833 55.033h16.933v16.933h-16.933z"/><path style="fill:#ecf20d;fill-opacity:1;stroke:none;stroke-width:.264583;stroke-linejoin:miter;stroke-miterlimit:4;stroke-dasharray:none;stroke-opacity:1" d="M71.967 55.033H88.9v16.933H71.967zM55.033 38.1h16.933v16.933H55.033zM55.033 71.967h16.933V88.9H55.033zM38.1 55.033h16.933v16.933H38.1z"/><path style="fill:#f55656;fill-opacity:1;stroke:none;stroke-width:.264583;stroke-linejoin:miter;stroke-miterlimit:4;stroke-dasharray:none;stroke-opacity:1" d="M4.233 55.033h16.933v16.933H4.233zM55.033 4.233h16.933v16.933H55.033zM55.033 105.833h16.933v16.933H55.033z"/><text xml:space="preserve" transform="matrix(.21167 0 0 .21167 50.23 57.635)" style="font-style:normal;font-variant:normal;font-weight:400;font-stretch:normal;font-size:20px;line-height:1.25;font-family:sans-serif;-inkscape-font-specification:'sans-serif, Normal';font-variant-ligatures:normal;font-variant-caps:normal;font-variant-numeric:normal;font-variant-east-asian:normal;letter-spacing:0;white-space:pre;shape-inside:url(#a)"><tspan x="36" y="33.695">(1, 4)</tspan></text><text xml:space="preserve" transform="matrix(.21167 0 0 .21167 50.23 40.702)" style="font-style:normal;font-variant:normal;font-weight:400;font-stretch:normal;font-size:20px;line-height:1.25;font-family:sans-serif;-inkscape-font-specification:'sans-serif, Normal';font-variant-ligatures:normal;font-variant-caps:normal;font-variant-numeric:normal;font-variant-east-asian:normal;letter-spacing:0;white-space:pre;shape-inside:url(#b)"><tspan x="36" y="33.695">(1, 5)</tspan></text><text xml:space="preserve" transform="matrix(.21167 0 0 .21167 50.11 74.608)" style="font-style:normal;font-variant:normal;font-weight:400;font-stretch:normal;font-size:20px;line-height:1.25;font-family:sans-serif;-inkscape-font-specification:'sans-serif, Normal';font-variant-ligatures:normal;font-variant-caps:normal;font-variant-numeric:normal;font-variant-east-asian:normal;letter-spacing:0;white-space:pre;shape-inside:url(#c)"><tspan x="36" y="33.695">(1, 3)</tspan></text><text xml:space="preserve" transform="matrix(.21167 0 0 .21167 67.162 57.635)" style="font-style:normal;font-variant:normal;font-weight:400;font-stretch:normal;font-size:20px;line-height:1.25;font-family:sans-serif;-inkscape-font-specification:'sans-serif, Normal';font-variant-ligatures:normal;font-variant-caps:normal;font-variant-numeric:normal;font-variant-east-asian:normal;letter-spacing:0;white-space:pre;shape-inside:url(#d)"><tspan x="36" y="33.695">(2, 3)</tspan></text><text xml:space="preserve" transform="matrix(.21167 0 0 .21167 50.06 6.866)" style="font-style:normal;font-variant:normal;font-weight:400;font-stretch:normal;font-size:20px;line-height:1.25;font-family:sans-serif;-inkscape-font-specification:'sans-serif, Normal';font-variant-ligatures:normal;font-variant-caps:normal;font-variant-numeric:normal;font-variant-east-asian:normal;letter-spacing:0;white-space:pre;shape-inside:url(#e)"><tspan x="36" y="33.695">(1, 7)</tspan></text><text xml:space="preserve" transform="matrix(.21167 0 0 .21167 50.23 108.435)" style="font-style:normal;font-variant:normal;font-weight:400;font-stretch:normal;font-size:20px;line-height:1.25;font-family:sans-serif;-inkscape-font-specification:'sans-serif, Normal';font-variant-ligatures:normal;font-variant-caps:normal;font-variant-numeric:normal;font-variant-east-asian:normal;letter-spacing:0;white-space:pre;shape-inside:url(#f)"><tspan x="36" y="33.695">(1, 1)</tspan></text><text xml:space="preserve" transform="matrix(.21167 0 0 .21167 101.004 57.576)" style="font-style:normal;font-variant:normal;font-weight:400;font-stretch:normal;font-size:20px;line-height:1.25;font-family:sans-serif;-inkscape-font-specification:'sans-serif, Normal';font-variant-ligatures:normal;font-variant-caps:normal;font-variant-numeric:normal;font-variant-east-asian:normal;letter-spacing:0;white-space:pre;shape-inside:url(#g)"><tspan x="36" y="33.695">(4, 4)</tspan></text><text xml:space="preserve" transform="matrix(.21167 0 0 .21167 -1.37 57.648)" style="font-style:normal;font-variant:normal;font-weight:400;font-stretch:normal;font-size:20px;line-height:1.25;font-family:sans-serif;-inkscape-font-specification:'sans-serif, Normal';font-variant-ligatures:normal;font-variant-caps:normal;font-variant-numeric:normal;font-variant-east-asian:normal;letter-spacing:0;white-space:pre;shape-inside:url(#h)"><tspan x="36" y="33.695">(-2, 4)</tspan></text><text xml:space="preserve" transform="matrix(.21167 0 0 .21167 32.952 57.648)" style="font-style:normal;font-variant:normal;font-weight:400;font-stretch:normal;font-size:20px;line-height:1.25;font-family:sans-serif;-inkscape-font-specification:'sans-serif, Normal';font-variant-ligatures:normal;font-variant-caps:normal;font-variant-numeric:normal;font-variant-east-asian:normal;letter-spacing:0;white-space:pre;shape-inside:url(#i)"><tspan x="36" y="33.695">(0, 4)</tspan></text><path style="fill:none;stroke:gray;stroke-width:.5;stroke-linecap:butt;stroke-linejoin:miter;stroke-miterlimit:4;stroke-dasharray:none;stroke-opacity:1" d="M55.033 4.233v118.534M71.967 4.233v118.534M88.9 4.233v118.534M105.833 4.233v118.534M4.233 4.233v118.534M4.233 4.233h118.534M4.233 21.167h118.534M21.167 4.233v118.534M38.1 4.233v118.534M122.767 4.233v118.534M4.233 38.1h118.534M4.233 55.033h118.534M4.233 71.967h118.534M4.233 88.9h118.534M4.233 105.833h118.534M4.233 122.767h118.534"/></svg>