<?xml version="1.0" encoding="UTF-8" standalone="no"?>
<svg
   shape-rendering="geometricPrecision"
   text-rendering="geometricPrecision"
   image-rendering="optimizeQuality"
   fill-rule="evenodd"
   clip-rule="evenodd"
   viewBox="0 0 512 512"
   version="1.1"
   id="svg4"
   sodipodi:docname="mastodon-icon.svg"
   inkscape:version="1.1.2 (0a00cf5339, 2022-02-04)"
   xmlns:inkscape="http://www.inkscape.org/namespaces/inkscape"
   xmlns:sodipodi="http://sodipodi.sourceforge.net/DTD/sodipodi-0.dtd"
   xmlns="http://www.w3.org/2000/svg"
   xmlns:svg="http://www.w3.org/2000/svg">
  <defs
     id="defs8" />
  <sodipodi:namedview
     id="namedview6"
     pagecolor="#ffffff"
     bordercolor="#666666"
     borderopacity="1.0"
     inkscape:pageshadow="2"
     inkscape:pageopacity="0.0"
     inkscape:pagecheckerboard="0"
     showgrid="true"
     inkscape:snap-global="true"
     inkscape:snap-midpoints="true"
     inkscape:snap-smooth-nodes="true"
     inkscape:snap-intersection-paths="true"
     inkscape:zoom="1.0805177"
     inkscape:cx="214.24915"
     inkscape:cy="235.99799"
     inkscape:window-width="1920"
     inkscape:window-height="1011"
     inkscape:window-x="929"
     inkscape:window-y="1080"
     inkscape:window-maximized="1"
     inkscape:current-layer="svg4">
    <inkscape:grid
       type="xygrid"
       id="grid869"
       empspacing="32" />
  </sodipodi:namedview>
  <circle
     style="opacity:1;fill:#f2f2f2;fill-opacity:0.9979592;stroke-width:1.002;stroke-miterlimit:4;stroke-dasharray:none"
     id="path3140"
     cx="256"
     cy="256"
     r="224" />
  <path
     d="M256 0c141.284 0 256 114.563 256 256 0 141.284-114.563 256-256 256C114.716 512 0 397.437 0 256 0 114.716 114.563 0 256 0zm134.506 175.487c-4.177-31.049-31.239-55.52-63.32-60.261-5.412-.801-25.918-3.717-73.421-3.717h-.354c-47.516 0-57.709 2.916-63.121 3.717-31.188 4.61-59.669 26.596-66.579 58.014-3.323 15.472-3.678 32.627-3.06 48.361.879 22.566 1.05 45.091 3.101 67.564a317.689 317.689 0 007.395 44.317c6.567 26.924 33.157 49.331 59.208 58.474a158.807 158.807 0 0086.622 4.57 126.28 126.28 0 009.367-2.561c6.988-2.22 15.173-4.701 21.191-9.063a.692.692 0 00.275-.525V362.6a.667.667 0 00-.066-.277.652.652 0 00-.721-.341 240.065 240.065 0 01-56.213 6.569c-32.58 0-41.342-15.46-43.849-21.895a67.833 67.833 0 01-3.812-17.259.611.611 0 01.054-.289.62.62 0 01.441-.361.644.644 0 01.293.006 235.518 235.518 0 0055.293 6.568c4.479 0 8.947 0 13.426-.12 18.732-.524 38.478-1.484 56.907-5.083.461-.091.921-.17 1.314-.288 29.073-5.583 56.739-23.104 59.55-67.472.104-1.748.368-18.296.368-20.108.012-6.16 1.983-43.699-.289-66.763zm-46.057 34.885v77.139H313.88v-74.867c0-15.761-6.569-23.8-19.929-23.8-14.689 0-22.045 9.511-22.045 28.291v40.981h-30.383v-40.981c0-18.78-7.371-28.291-22.058-28.291-13.281 0-19.915 8.039-19.915 23.8v74.867h-30.556v-77.139c0-15.761 4.025-28.283 12.072-37.565 8.303-9.26 19.193-14.014 32.711-14.014 15.645 0 27.468 6.016 35.35 18.033l7.607 12.767 7.62-12.767c7.881-12.017 19.705-18.033 35.323-18.033 13.506 0 24.395 4.754 32.724 14.014 8.041 9.274 12.056 21.796 12.048 37.565z"
     id="path2"
     style="fill:#0d0d0d;fill-opacity:1" />
  <path
     style="opacity:0;fill:#cfff58;fill-opacity:1;stroke-width:1.00157"
     id="path1633"
     sodipodi:type="arc"
     sodipodi:cx="624"
     sodipodi:cy="240"
     sodipodi:rx="80"
     sodipodi:ry="112"
     sodipodi:start="0.26023732"
     sodipodi:end="6.0860853"
     sodipodi:arc-type="slice"
     d="M 701.30632,268.81871 A 80,112 0 0 1 612.36913,350.81 80,112 0 0 1 544.03986,236.4649 80,112 0 0 1 617.3863,128.38339 80,112 0 0 1 702.45109,218.06745 L 624,240 Z" />
  <path
     style="opacity:0;fill:#d67218;fill-opacity:1;stroke-width:1.002;stroke-miterlimit:4;stroke-dasharray:none"
     id="path1638"
     sodipodi:type="arc"
     sodipodi:cx="704"
     sodipodi:cy="176"
     sodipodi:rx="96"
     sodipodi:ry="112"
     sodipodi:start="0.26023732"
     sodipodi:end="6.0860853"
     sodipodi:arc-type="slice"
     d="M 796.76758,204.81871 A 96,112 0 0 1 690.04296,286.81 96,112 0 0 1 608.04783,172.4649 96,112 0 0 1 696.06356,64.38339 96,112 0 0 1 798.1413,154.06745 L 704,176 Z" />
  <rect
     style="opacity:0;fill:#d67218;fill-opacity:1;stroke-width:1.002;stroke-miterlimit:4;stroke-dasharray:none"
     id="rect2190"
     width="416"
     height="448"
     x="544"
     y="32" />
  <rect
     style="opacity:0;fill:#1a7218;fill-opacity:1;stroke-width:1.002;stroke-miterlimit:4;stroke-dasharray:none"
     id="rect2194"
     width="416"
     height="448"
     x="544"
     y="32" />
</svg>
